<?xml version="1.0" standalone="no"?>
<!DOCTYPE svg PUBLIC "-//W3C//DTD SVG 20010904//EN"
 "http://www.w3.org/TR/2001/REC-SVG-20010904/DTD/svg10.dtd">
<svg version="1.0" xmlns="http://www.w3.org/2000/svg"
 width="700.000000pt" height="700.000000pt" viewBox="0 0 700.000000 700.000000"
 preserveAspectRatio="xMidYMid meet">
<metadata>
Created by potrace 1.14, written by Peter Selinger 2001-2017
</metadata>
<g transform="translate(0.000000,700.000000) scale(0.100000,-0.100000)"
fill="#000000" stroke="none">
<path d="M2 5833 l3 -1167 1228 0 c675 0 1227 -2 1227 -4 0 -4 -89 -176 -183
-352 -22 -41 -60 -113 -85 -160 -24 -47 -64 -121 -87 -165 -23 -44 -66 -125
-95 -180 -97 -184 -158 -300 -195 -370 -21 -38 -61 -115 -90 -170 -28 -55 -68
-129 -87 -165 -19 -36 -60 -112 -90 -170 -31 -58 -77 -145 -103 -195 -26 -49
-70 -133 -98 -185 -76 -146 -108 -205 -114 -210 -2 -3 -275 -6 -606 -7 -331
-1 -608 -2 -614 -2 -10 -1 -13 -241 -13 -1166 l0 -1165 3500 0 3500 0 -2 1167
-3 1167 -1222 0 c-672 1 -1225 4 -1229 8 -4 4 -2 13 3 20 6 7 41 72 78 143 37
72 75 144 85 160 9 17 50 93 90 170 40 77 85 163 100 190 15 28 55 102 88 165
89 170 238 454 287 545 18 33 58 108 89 168 31 59 81 155 112 215 31 59 71
134 89 167 18 33 63 119 101 190 37 72 76 144 86 160 l18 30 612 1 613 0 3
1167 2 1167 -3500 0 -3500 0 2 -1167z"/>
</g>
</svg>
